<svg width="300" height="300" viewBox="0 0 300 300" fill="none" xmlns="http://www.w3.org/2000/svg">
  <path d="M150 250C205.228 250 250 205.228 250 150C250 94.7715 205.228 50 150 50C94.7715 50 50 94.7715 50 150C50 205.228 94.7715 250 150 250Z" fill="#F1F5F9"/>
  <path d="M150 200C177.614 200 200 177.614 200 150C200 122.386 177.614 100 150 100C122.386 100 100 122.386 100 150C100 177.614 122.386 200 150 200Z" fill="#E2E8F0"/>
  <path d="M150 180C166.569 180 180 166.569 180 150C180 133.431 166.569 120 150 120C133.431 120 120 133.431 120 150C120 166.569 133.431 180 150 180Z" fill="#CBD5E1"/>
  <path d="M135 140H165V160H135V140Z" fill="#4F46E5"/>
  <path d="M145 130V170" stroke="#4F46E5" stroke-width="4" stroke-linecap="round"/>
  <path d="M155 130V170" stroke="#4F46E5" stroke-width="4" stroke-linecap="round"/>
</svg> 